<mxfile host="app.diagrams.net" modified="2024-03-18T14:53:18.751Z" agent="Mozilla/5.0 (Windows NT 10.0; Win64; x64) AppleWebKit/537.36 (KHTML, like Gecko) Chrome/122.0.0.0 Safari/537.36" etag="N6XBCjzFVSBGH61dZMc4" version="24.0.7" type="github">
  <diagram id="C5RBs43oDa-KdzZeNtuy" name="Page-1">
    <mxGraphModel dx="503" dy="343" grid="1" gridSize="10" guides="1" tooltips="1" connect="1" arrows="1" fold="1" page="1" pageScale="1" pageWidth="827" pageHeight="1169" math="0" shadow="0">
      <root>
        <mxCell id="WIyWlLk6GJQsqaUBKTNV-0" />
        <mxCell id="WIyWlLk6GJQsqaUBKTNV-1" parent="WIyWlLk6GJQsqaUBKTNV-0" />
        <mxCell id="h7MqWpgEjOswDt-EI_l6-22" style="edgeStyle=orthogonalEdgeStyle;rounded=0;orthogonalLoop=1;jettySize=auto;html=1;entryX=0.5;entryY=0;entryDx=0;entryDy=0;" edge="1" parent="WIyWlLk6GJQsqaUBKTNV-1" source="h7MqWpgEjOswDt-EI_l6-2" target="h7MqWpgEjOswDt-EI_l6-8">
          <mxGeometry relative="1" as="geometry" />
        </mxCell>
        <mxCell id="h7MqWpgEjOswDt-EI_l6-2" value="User A" style="sketch=0;pointerEvents=1;shadow=0;dashed=0;html=1;strokeColor=none;fillColor=#505050;labelPosition=center;verticalLabelPosition=bottom;verticalAlign=top;outlineConnect=0;align=center;shape=mxgraph.office.devices.mac_client;points=[[0.5,1,0,0,73]];" vertex="1" parent="WIyWlLk6GJQsqaUBKTNV-1">
          <mxGeometry x="90" y="40" width="60" height="50" as="geometry" />
        </mxCell>
        <mxCell id="h7MqWpgEjOswDt-EI_l6-4" value="UserB" style="sketch=0;pointerEvents=1;shadow=0;dashed=0;html=1;strokeColor=none;fillColor=#505050;labelPosition=center;verticalLabelPosition=bottom;verticalAlign=top;outlineConnect=0;align=center;shape=mxgraph.office.devices.mac_client;" vertex="1" parent="WIyWlLk6GJQsqaUBKTNV-1">
          <mxGeometry x="670" y="30" width="60" height="50" as="geometry" />
        </mxCell>
        <mxCell id="h7MqWpgEjOswDt-EI_l6-23" style="edgeStyle=orthogonalEdgeStyle;rounded=0;orthogonalLoop=1;jettySize=auto;html=1;exitX=1;exitY=0.5;exitDx=0;exitDy=0;" edge="1" parent="WIyWlLk6GJQsqaUBKTNV-1" source="h7MqWpgEjOswDt-EI_l6-8" target="h7MqWpgEjOswDt-EI_l6-13">
          <mxGeometry relative="1" as="geometry" />
        </mxCell>
        <mxCell id="h7MqWpgEjOswDt-EI_l6-8" value="Google Log In" style="rounded=1;whiteSpace=wrap;html=1;absoluteArcSize=1;arcSize=14;strokeWidth=2;" vertex="1" parent="WIyWlLk6GJQsqaUBKTNV-1">
          <mxGeometry x="90" y="140" width="60" height="30" as="geometry" />
        </mxCell>
        <mxCell id="h7MqWpgEjOswDt-EI_l6-12" value="MESSENGER&lt;br&gt;SERVER" style="sketch=0;pointerEvents=1;shadow=0;dashed=0;html=1;strokeColor=none;fillColor=#505050;labelPosition=center;verticalLabelPosition=bottom;verticalAlign=top;outlineConnect=0;align=center;shape=mxgraph.office.servers.server_generic;" vertex="1" parent="WIyWlLk6GJQsqaUBKTNV-1">
          <mxGeometry x="220" y="280" width="27" height="52" as="geometry" />
        </mxCell>
        <mxCell id="h7MqWpgEjOswDt-EI_l6-13" value="GOOGLE&lt;br&gt;SERVER" style="sketch=0;pointerEvents=1;shadow=0;dashed=0;html=1;strokeColor=none;fillColor=#505050;labelPosition=center;verticalLabelPosition=bottom;verticalAlign=top;outlineConnect=0;align=center;shape=mxgraph.office.servers.server_farm;fillColor=#DA4026;points=[[0,0.84,0,-3,0]];" vertex="1" parent="WIyWlLk6GJQsqaUBKTNV-1">
          <mxGeometry x="210" y="140" width="82" height="80" as="geometry" />
        </mxCell>
        <mxCell id="h7MqWpgEjOswDt-EI_l6-27" style="edgeStyle=orthogonalEdgeStyle;rounded=0;orthogonalLoop=1;jettySize=auto;html=1;exitX=0.5;exitY=1;exitDx=0;exitDy=0;" edge="1" parent="WIyWlLk6GJQsqaUBKTNV-1" source="h7MqWpgEjOswDt-EI_l6-15">
          <mxGeometry relative="1" as="geometry">
            <mxPoint x="119.85714285714289" y="270" as="targetPoint" />
          </mxGeometry>
        </mxCell>
        <mxCell id="h7MqWpgEjOswDt-EI_l6-15" value="Oauth&lt;div&gt;&lt;span style=&quot;background-color: initial;&quot;&gt;Authentication&lt;/span&gt;&lt;/div&gt;" style="rounded=1;whiteSpace=wrap;html=1;absoluteArcSize=1;arcSize=14;strokeWidth=2;" vertex="1" parent="WIyWlLk6GJQsqaUBKTNV-1">
          <mxGeometry x="80" y="200" width="80" height="40" as="geometry" />
        </mxCell>
        <mxCell id="h7MqWpgEjOswDt-EI_l6-26" style="edgeStyle=orthogonalEdgeStyle;rounded=0;orthogonalLoop=1;jettySize=auto;html=1;exitX=0;exitY=0.84;exitDx=-3;exitDy=0;exitPerimeter=0;entryX=1;entryY=0.18;entryDx=0;entryDy=0;entryPerimeter=0;" edge="1" parent="WIyWlLk6GJQsqaUBKTNV-1" source="h7MqWpgEjOswDt-EI_l6-13" target="h7MqWpgEjOswDt-EI_l6-15">
          <mxGeometry relative="1" as="geometry" />
        </mxCell>
        <mxCell id="h7MqWpgEjOswDt-EI_l6-29" style="edgeStyle=orthogonalEdgeStyle;rounded=0;orthogonalLoop=1;jettySize=auto;html=1;" edge="1" parent="WIyWlLk6GJQsqaUBKTNV-1" source="h7MqWpgEjOswDt-EI_l6-28" target="h7MqWpgEjOswDt-EI_l6-12">
          <mxGeometry relative="1" as="geometry" />
        </mxCell>
        <mxCell id="h7MqWpgEjOswDt-EI_l6-28" value="Connect to Messenger Server" style="rounded=1;whiteSpace=wrap;html=1;absoluteArcSize=1;arcSize=14;strokeWidth=2;" vertex="1" parent="WIyWlLk6GJQsqaUBKTNV-1">
          <mxGeometry x="80" y="270" width="90" height="40" as="geometry" />
        </mxCell>
      </root>
    </mxGraphModel>
  </diagram>
</mxfile>
